<?xml version="1.0" encoding="utf-8"?>
<!-- Generator: Adobe Illustrator 23.0.0, SVG Export Plug-In . SVG Version: 6.00 Build 0)  -->
<svg version="1.1" id="Layer_1" xmlns="http://www.w3.org/2000/svg" xmlns:xlink="http://www.w3.org/1999/xlink" x="0px" y="0px"
	 viewBox="0 0 805.62 347.88" style="enable-background:new 0 0 805.62 347.88;" xml:space="preserve">
<style type="text/css">
	.st0{fill:#555654;}
	.st1{fill:#535452;}
	.st2{fill:none;stroke:#FAA419;stroke-width:26;stroke-miterlimit:10;}
</style>
<g>
	
		<rect x="381.06" y="164.16" transform="matrix(1.068390e-10 -1 1 1.068390e-10 260.5008 613.815)" class="st0" width="112.2" height="25"/>
	
		<rect x="432.34" y="266.61" transform="matrix(3.664731e-10 -1 1 3.664731e-10 158.0467 716.269)" class="st1" width="9.64" height="25"/>
	
		<rect x="363.09" y="295.87" transform="matrix(1.572725e-10 -1 1 1.572725e-10 63.4722 679.5553)" class="st1" width="16.84" height="24.34"/>
	<rect x="359.37" y="249.8" class="st1" width="90.28" height="24.63"/>
	<rect x="359.35" y="281.36" class="st1" width="90.33" height="24.41"/>
	<rect x="359.37" y="312.31" class="st1" width="90.28" height="24.63"/>
	<rect x="433.36" y="169.41" class="st0" width="35.67" height="24.16"/>
	<rect x="20.33" y="120.59" class="st0" width="267.01" height="25"/>
	
		<rect x="219.07" y="164.49" transform="matrix(1.074697e-10 -1 1 1.074697e-10 97.844 451.8257)" class="st0" width="111.53" height="25"/>
	
		<rect x="-6.18" y="181.06" transform="matrix(1.523662e-10 -1 1 1.523662e-10 -160.4003 226.7236)" class="st0" width="78.67" height="25"/>
	<rect x="20.66" y="207.9" class="st0" width="91.67" height="25"/>
	<rect x="139.66" y="154.23" class="st0" width="90.17" height="24.63"/>
	<rect x="139.66" y="208.2" class="st0" width="90.17" height="24.63"/>
	
		<rect x="142.83" y="182.16" transform="matrix(4.488594e-11 -1 1 4.488594e-11 -31.0637 357.8968)" class="st0" width="41.17" height="24.63"/>
	
		<rect x="184.83" y="182.16" transform="matrix(4.488594e-11 -1 1 4.488594e-11 10.9363 399.8968)" class="st0" width="41.17" height="24.63"/>
	<rect x="244.83" y="169.41" class="st0" width="35.67" height="24.16"/>
	<rect x="245.2" y="208.18" class="st0" width="26.67" height="24.58"/>
	
		<rect x="560.17" y="164.25" transform="matrix(1.070247e-10 -1 1 1.070247e-10 439.4136 792.9228)" class="st0" width="112" height="25"/>
	
		<rect x="558.22" y="134.93" transform="matrix(1.110099e-10 -1 1 1.110099e-10 426.6956 721.5586)" class="st0" width="31.82" height="25"/>
	
		<rect x="488.58" y="177.28" transform="matrix(8.667029e-11 -1 1 8.667029e-11 319.1692 698.7385)" class="st0" width="40.76" height="25"/>
	<rect x="496.45" y="120.55" class="st0" width="90.17" height="24.63"/>
	<rect x="496.45" y="161.58" class="st0" width="90.17" height="24.63"/>
	<rect x="496.45" y="208.2" class="st0" width="90.17" height="24.63"/>
	
		<rect x="719.07" y="164.16" transform="matrix(1.068746e-10 -1 1 1.068746e-10 598.5092 951.8272)" class="st0" width="112.19" height="25"/>
	
		<rect x="687.73" y="163.46" transform="matrix(3.970430e-11 -1 1 3.970430e-11 556.2084 908.1281)" class="st0" width="88.88" height="25"/>
	
		<rect x="633.69" y="164.36" transform="matrix(5.303764e-11 -1 1 5.303764e-11 490.1332 843.8567)" class="st0" width="66.6" height="25"/>
	<rect x="654.49" y="120.55" class="st0" width="90.17" height="24.63"/>
	<rect x="654.49" y="208.2" class="st0" width="90.17" height="24.63"/>
	<ellipse class="st2" cx="66.5" cy="56.06" rx="32.26" ry="30.71"/>
	
		<ellipse transform="matrix(0.9998 -0.0178 0.0178 0.9998 -5.2185 4.4172)" class="st2" cx="245.2" cy="294.98" rx="32.26" ry="30.71"/>
	
		<ellipse transform="matrix(0.9998 -0.0178 0.0178 0.9998 -2.9111 6.449)" class="st2" cx="360.35" cy="166.54" rx="32.26" ry="30.71"/>
</g>
</svg>
